<?xml version="1.0" encoding="UTF-8"?>
<svg id="Layer_1" xmlns="http://www.w3.org/2000/svg" version="1.1" viewBox="0 0 112.33 122.95">
  <defs>
    <style>
      .st0 {
        fill: #de2729;
      }

      .st0, .st1, .st2 {
        fill-rule: evenodd;
      }

      .st1 {
        fill: #05529a;
      }

      .st2 {
        fill: #00a450;
      }
    </style>
  </defs>
  <path class="st1" d="M96.43,22.96c-.17-.64-.85-1.24-1.53-1.33l-1.65-.12c-2.93-.22-6.48-.28-8.99-.53-3.93-.39-10.1.03-15.14.75-5.05.72-15.17,1.09-19.25,1.03-4.09-.07-5.71-.32-7.2-.67-1.5-.35-9.33-.32-11.87-.52-1.49-.12-5.31-.35-10.41-.59l-3.57-.17c-1.58-.07-2.82,1.2-2.76,2.83.06,1.63-.05,6.4.11,10.72l.02.68c.15,4.31-.08,9.13-.02,10.72.05,1.58.92,3.15,1.94,3.49,0,0,.41,0,1.13.23.73.24,2.98,1.4,3.82,1.74.83.34,2.22-.99,2.86-1.47.64-.48,7.93-6.29,16.97-11.09,6.9-3.66,18.52-7.94,23.65-9.9,1.6-.61,5.31-.05,7.05,1.1,1.76,1.16,11.71,2.59,12.71,2.92,1,.33,4.61,1.26,5.78,1.67.62.22,2.2.09,3.54-.07l1.18-.15c.56-.1,1.06-.69,1.13-1.32l.14-1.56c.15-1.77.33-4.97.35-6.7,0-1.26,0-1.7,0-1.7"/>
  <path class="st0" d="M7.52,64.88c-1.35,1.16-1.52,2.76-.37,3.55,1.15.79,2.67.94,3.39.34l1.83-1.42c1.91-1.47,4.38-3.29,6.58-4.6,4.32-2.56,11.31-5.85,17.8-9.35,6.49-3.5,13.86-7.04,16.5-8.83l2.64-1.79c.92-.69,2.52-.98,3.57-.65l2.9,1.08c2.9,1.08,4.21,1.74,5.69,1.77,1.49.03,3.76-.1,4.41.08.67.17,5.4,2.73,8.5,4.62,3.1,1.89,7.96,4.9,11.87,6.79,3.91,1.9,3.62,1.32,4.78,1.49l1.16.19c2.36.6,2.96.21,3.82-.88l1.18-1.62c.49-.67.91-1.29,1.14-1.67.77-1.34,1.27-2.45.91-3.26-.36-.81-3.89-2.94-6.14-4.11-2.25-1.17-5.29-2.88-11.63-4.34-6.33-1.46-14.82-3.34-17.7-3.71-2.88-.37-6.27-1.62-7.51-2.12-1.24-.51-2.81-1.18-4.83-.73-2.02.45-3.4.81-4.7,1.11-1.3.29-3.47,1.29-4.99,2.07-1.52.78-9.38,4.47-10.51,5.26-1.13.78-4.01,2.15-6.17,3.4-2.16,1.25-7.83,4.66-10.3,6.45-2.47,1.79-4.79,3.36-6.93,5-2.15,1.64-4.54,3.85-5.72,4.86l-1.18,1.01Z"/>
  <path class="st2" d="M27.92,61.47c-.29-.66-1.28-.72-2.19-.13l-1.56.93c-.74.44-1.45.84-1.97,1.09-1.61.77-4.59,3.27-5.89,5.49-1.2,2.05-1.21,4.94-1.21,8.29s-.2,6.15-.02,11.27c.08,2.24-.12,4.56-.04,6.95l.11,3.08c.05,1.36.79,2.63,1.65,2.82l.99.02c.98.02,4.17-.09,5.38-.23,1.22-.13,3.43.23,5.48.58,2.06.36,4.59.56,7.13.44,2.53-.12,11.9-.28,17.47-.03,5.57.26,11.74-.12,14.93-.23,3.19-.1,6.86-.9,9.05-1.19,2.2-.28,5.26-.87,6.42-.85.61,0,4.25.07,7.57.13l2.97.05c1.49.02,2.64-1.35,2.58-3.06v-2.48c-.01-.72,0-.96,0-1.48.05-1.31.2-4.1.32-6.47l.09-1.79c.04-.77-.96-1.78-2.46-1.96,0,0-.21-.08-3.07-.31-3.96-.33-8.66-.64-10.26-.58-2.86.12-7.79.12-10.39.24-2.59.11-4.22-.84-10.17-.94-5.97-.1-9.08-.74-15.02-.29-5.94.45-10.84.52-12.54.81-1.7.29-4.48-1.97-4.61-5.58-.12-3.61-.27-10.92-.5-12.75l-.23-1.84Z"/>
</svg>
