<?xml version="1.0" encoding="UTF-8"?>
<svg id="Layer_1" xmlns="http://www.w3.org/2000/svg" version="1.1" viewBox="0 0 421.52 122.95">
  <defs>
    <style>
      .st0 {
        fill: #de2729;
      }

      .st0, .st1, .st2 {
        fill-rule: evenodd;
      }

      .st3 {
        fill: #1d1e1b;
      }

      .st1 {
        fill: #05529a;
      }

      .st2 {
        fill: #00a450;
      }
    </style>
  </defs>
  <g>
    <path class="st1" d="M96.5,32.76c-.13-.49-.65-.95-1.17-1.02l-1.26-.09c-2.24-.17-4.95-.21-6.87-.4-3-.3-7.72.03-11.57.57-3.86.55-11.59.84-14.71.78-3.13-.05-4.36-.24-5.5-.51-1.15-.26-7.13-.24-9.07-.4-1.14-.09-4.06-.27-7.96-.45l-2.73-.13c-1.21-.06-2.15.92-2.11,2.17.05,1.25-.04,4.89.09,8.19l.02.52c.12,3.3-.06,6.98-.02,8.19.03,1.21.71,2.41,1.48,2.67,0,0,.31,0,.87.18.56.18,2.28,1.07,2.92,1.33.64.26,1.7-.76,2.19-1.12.49-.36,6.06-4.81,12.97-8.48,5.27-2.8,14.15-6.07,18.08-7.57,1.22-.46,4.05-.04,5.39.84,1.34.89,8.95,1.98,9.71,2.23.77.26,3.53.96,4.42,1.27.47.17,1.68.07,2.7-.05l.9-.11c.43-.07.81-.53.87-1.01l.11-1.19c.12-1.35.25-3.8.27-5.12,0-.96,0-1.3,0-1.3"/>
    <path class="st0" d="M28.55,64.8c-1.03.89-1.16,2.11-.28,2.71.88.6,2.04.72,2.59.26l1.4-1.08c1.46-1.13,3.35-2.52,5.03-3.52,3.3-1.96,8.65-4.47,13.6-7.14,4.96-2.67,10.59-5.38,12.61-6.75l2.01-1.37c.7-.53,1.92-.75,2.73-.49l2.21.83c2.22.83,3.22,1.33,4.35,1.35,1.14.02,2.87-.07,3.37.06.51.13,4.13,2.09,6.49,3.53,2.37,1.44,6.08,3.74,9.07,5.19,2.99,1.45,2.77,1.01,3.66,1.14l.89.14c1.8.46,2.26.16,2.92-.67l.9-1.24c.37-.52.7-.98.87-1.28.59-1.03.97-1.88.69-2.49-.27-.62-2.97-2.25-4.7-3.14-1.72-.89-4.04-2.2-8.89-3.32-4.84-1.12-11.33-2.55-13.53-2.83-2.2-.29-4.79-1.24-5.74-1.62-.94-.39-2.15-.9-3.69-.56-1.54.34-2.6.62-3.59.85-1,.23-2.65.99-3.81,1.58-1.16.6-7.17,3.42-8.03,4.02-.86.6-3.06,1.64-4.71,2.6-1.65.96-5.98,3.56-7.87,4.93-1.89,1.37-3.66,2.57-5.29,3.82-1.65,1.25-3.47,2.94-4.37,3.71l-.9.77Z"/>
    <path class="st2" d="M44.14,62.19c-.22-.5-.98-.55-1.67-.1l-1.2.71c-.56.33-1.11.64-1.5.83-1.23.59-3.51,2.5-4.5,4.2-.92,1.56-.93,3.78-.93,6.34s-.15,4.7-.01,8.61c.06,1.71-.09,3.48-.03,5.31l.09,2.35c.04,1.04.61,2.01,1.26,2.15l.76.02c.75.02,3.19-.07,4.11-.18.93-.1,2.62.17,4.19.44,1.57.27,3.51.43,5.45.34,1.93-.09,9.1-.22,13.35-.02,4.25.2,8.97-.09,11.41-.18,2.44-.08,5.24-.69,6.91-.91,1.68-.22,4.02-.67,4.9-.65.47,0,3.25.05,5.79.1l2.27.04c1.14.02,2.02-1.03,1.97-2.34v-1.89c-.01-.55,0-.73,0-1.13.04-1,.15-3.14.24-4.94l.07-1.37c.03-.59-.73-1.36-1.88-1.5,0,0-.16-.06-2.35-.24-3.03-.25-6.62-.49-7.84-.44-2.19.09-5.95.09-7.94.18-1.98.09-3.22-.64-7.77-.72-4.56-.08-6.94-.57-11.48-.23-4.54.34-8.28.4-9.59.62-1.3.23-3.42-1.51-3.52-4.26-.1-2.76-.21-8.34-.39-9.75l-.18-1.4Z"/>
  </g>
  <g>
    <path class="st3" d="M134.89,44.97c.44,0,.66.23.66.69v4.92c0,.46-.22.69-.66.69h-15.69v8.69h14.34c.48,0,.7.23.7.69v4.69c0,.46-.22.69-.7.69h-14.34v8.23h15.69c.44,0,.66.23.66.69v4.92c0,.46-.22.69-.66.69h-21.9c-.44,0-.66-.23-.66-.74v-34.17c0-.46.22-.69.66-.69h21.9Z"/>
    <path class="st3" d="M174.3,56.61c1.35,1.33,2.05,3.91,2.05,7.73l-.04,15.5c0,.51-.22.74-.66.74h-5.16c-.44,0-.66-.23-.66-.74v-12.46c-.22-6.76-.39-6.72-4.15-6.9-1.27,0-2.45.09-3.54.28.39,1.2.57,2.8.57,4.88l-.04,14.21c0,.51-.22.74-.61.74h-5.2c-.39,0-.61-.23-.61-.74v-14.03c0-2.62-.13-3.86-.87-4.55-.74-.74-1.4-.78-3.32-.78h-2.97v19.36c0,.51-.22.74-.66.74h-5.16c-.44,0-.66-.23-.66-.74v-23.78c0-.37.18-.6.57-.69,2.27-.51,5.07-.78,8.39-.78s5.9.51,7.83,1.47c2.49-1.01,5.03-1.52,7.61-1.52,3.5,0,5.95.69,7.3,2.07"/>
    <path class="st3" d="M189.23,44.97c.44,0,.66.23.66.69v34.17c0,.51-.22.74-.66.74h-5.16c-.44,0-.66-.23-.66-.74v-34.17c0-.46.22-.69.66-.69h5.16Z"/>
    <path class="st3" d="M215.49,56.29c1.49,1.29,2.23,3.27,2.23,5.98v15.91c0,.74-.31,1.2-.96,1.43-2.67.64-5.99.97-9.92.97-3.67,0-5.51-.18-7.43-1.24-1.88-1.1-2.62-3.17-2.67-6.71.04-2.94.74-4.92,2.14-5.98,1.44-1.06,3.72-1.56,6.82-1.56h5.55v-1.65c0-2.12-1.35-3.17-4.11-3.17h-7.91c-.48,0-.61-.14-.61-.69v-3.77c0-.51.13-.6.61-.74,2.23-.46,4.85-.69,7.91-.69,4.06,0,6.86.64,8.35,1.93M211.25,69.49h-5.03c-2.27,0-3.06.74-3.06,2.76,0,2.16.92,2.8,3.72,2.8,1.88,0,3.32-.14,4.37-.46v-5.1Z"/>
    <path class="st3" d="M230.61,44.97c.44,0,.66.23.66.74v17.94l6.25-8.37c.22-.32.53-.46.92-.46h5.9c.74,0,.87.27.39.87l-7.04,9.24,8.96,14.4c.44.83.18,1.24-.74,1.24h-5.51c-.48,0-.79-.18-.96-.51l-8.17-13.57v13.34c0,.51-.22.74-.66.74h-5.16c-.44,0-.66-.23-.66-.74v-34.12c0-.51.22-.74.66-.74h5.16Z"/>
    <path class="st3" d="M275.01,45.01c.67,0,.76.24.33.76l-15.12,15.69,16.03,18.06c.43.52.28,1.04-.67,1.04h-2.62c-.43,0-.71-.14-.9-.43l-15.65-17.78v17.59c0,.43-.19.62-.62.62h-2.42c-.43,0-.62-.19-.62-.62v-34.37c0-.38.19-.57.62-.57h2.42c.43,0,.62.19.62.57v14.97l14.93-15.16c.19-.24.48-.38.86-.38h2.81Z"/>
    <path class="st3" d="M298.79,61.75v16.64c0,.62-.29,1-.86,1.23-1.66.62-5.04.95-10.13.95-3.19,0-5.47-.52-6.75-1.57-1.28-1.09-1.95-3.04-1.95-5.94,0-5.09,2.47-7.04,7.94-7.04h8.32v-3.76c0-3.47-2.24-4.85-7.04-4.85h-6.42c-.43,0-.62-.19-.62-.62v-1.33c0-.33.19-.57.57-.67,1.95-.29,4.14-.43,6.47-.43,6.9,0,10.46,2.04,10.46,7.37M295.37,69.02h-8.32c-3.19,0-4.52,1.14-4.52,4.04,0,3.47,1.47,4.52,6.04,4.52,2.95,0,5.23-.19,6.8-.62v-7.94Z"/>
    <path class="st3" d="M308.6,47.44c.47-.14.71.05.71.52v6.66h5.28c.43,0,.62.19.62.62v1.66c0,.38-.19.57-.62.57h-5.28v17.4c0,2.14.57,2.66,3.09,2.66h2.52c.43,0,.67.19.67.57v1.62c0,.33-.19.52-.57.62-.66.14-1.52.24-2.57.24-1.57,0-2.42,0-3.76-.38-1.66-.52-2.85-1.76-2.85-4.61v-18.11h-2.66c-.43,0-.62-.19-.62-.57v-1.66c0-.43.19-.62.62-.62h2.66v-6.04c0-.33.19-.52.52-.62l2.24-.52Z"/>
    <rect class="st3" x="320.63" y="54.85" width="3.47" height="25.72" rx=".62" ry=".62"/>
    <path class="st3" d="M334.02,45.01c.43,0,.62.19.62.57v34.37c0,.43-.19.62-.62.62h-2.24c-.43,0-.62-.19-.62-.62v-34.37c0-.38.19-.57.62-.57h2.24Z"/>
    <rect class="st3" x="341.7" y="54.85" width="3.47" height="25.72" rx=".62" ry=".62"/>
    <path class="st3" d="M384.24,56.33c1.9,1.52,2.38,4.18,2.38,9.13l-.05,14.5c0,.43-.19.62-.62.62h-2.14c-.43,0-.62-.19-.62-.62v-14.5c0-3.66-.33-5.66-1.52-6.66-1.19-1.09-2.33-1.19-4.99-1.19-2.43,0-4.57.19-6.42.52.66,1.62,1,3.99,1,7.08l-.1,14.73c0,.43-.19.62-.52.62h-2.24c-.43,0-.62-.19-.62-.62v-14.69c0-2.99-.38-4.75-.9-5.85-.24-.52-.71-.95-1.33-1.19-1.19-.52-2-.57-4.28-.57h-5.61v22.29c0,.43-.19.62-.57.62h-2.23c-.43,0-.62-.19-.62-.62v-24.05c0-.38.19-.57.62-.62,2.71-.43,5.33-.66,7.85-.66,3.28,0,5.75.43,7.47,1.33,2.76-.9,5.42-1.38,7.94-1.38,4.33,0,6.28.24,8.13,1.76"/>
  </g>
</svg>
